# xmcd
#
# Track frame offsets: 
#        150
#        39290
#        57696
#        80260
#        107115
#        133336
#        152909
#        174044
#        196350
#        230795
#        244252
#        292229
#
# Disc length: 4306 seconds
#
# Revision: 0
# Processed by: cddbd v1.5.2PL0 Copyright (c) Steve Scherf et al.
# Submitted via: ExactAudioCopy v0.95b4
#
DISCID=af10d00c
DTITLE=Skipper Just Frost - Trio - Live
DYEAR=2009
DGENRE=R&B
TTITLE0=Got To The Mardi Gras
TTITLE1=Downheart Blues
TTITLE2=Sådan Ligger Landet
TTITLE3=Peace In The Valley
TTITLE4=Bryggen
TTITLE5=Superstar
TTITLE6=Charmetrold
TTITLE7=Venter I Et Kryds
TTITLE8=Let Me Love You
TTITLE9=Vinden I Dit Hår
TTITLE10=Iko Iko - How Can They
TTITLE11=You Are My Sunshine
EXTD=
EXTT0=
EXTT1=
EXTT2=
EXTT3=
EXTT4=
EXTT5=
EXTT6=
EXTT7=
EXTT8=
EXTT9=
EXTT10=
EXTT11=
PLAYORDER=
